<svg width="38" height="28" viewBox="0 0 38 28" fill="none" xmlns="http://www.w3.org/2000/svg">
<path d="M10.2082 24.7566C10.6774 24.3103 10.9352 24.0846 11.1712 23.8378C18.7371 15.9279 27.0231 8.80676 35.358 1.73961C35.6729 1.4727 35.9956 1.13221 36.3684 1.03679C36.8178 0.921628 37.5509 0.845952 37.7518 1.09021C38.0218 1.41907 38.0696 2.13394 37.9051 2.56612C37.7092 3.08019 37.232 3.52047 36.7991 3.90546C34.2157 6.20248 31.56 8.42051 29.0219 10.7654C23.7166 15.6683 18.4451 20.6077 13.2074 25.5836C10.9124 27.7594 10.0291 27.8475 7.91726 25.5226C6.5271 23.9916 2.33168 18.8318 1.04684 17.2062C0.865398 16.9535 0.703776 16.6871 0.563435 16.4094C0.272606 15.8949 0.0841827 15.3284 0.660024 14.9295C1.30172 14.4855 1.75729 14.9489 2.13745 15.4313C2.52238 15.9198 2.8506 16.4566 3.26275 16.9195C4.54219 18.3568 8.8263 23.2414 10.2082 24.7566Z" fill="black"/>
</svg>
