<svg width="56" height="55" viewBox="0 0 56 55" fill="none" xmlns="http://www.w3.org/2000/svg">
<path d="M44.631 25.248L45.238 24.6411C45.5741 24.305 45.5741 23.7602 45.238 23.4242L40.0822 19.0304L35.5207 13.7068L32.8809 11.2365C32.5686 10.9444 32.0893 10.9258 31.7554 11.1929L30.1858 12.4486L25.0229 17.6115L6.80208 35.1328C5.68346 36.2515 4.866 37.639 4.41424 39.1556L0.606611 52.1058C0.33771 53.0093 0.585099 53.9881 1.26273 54.655C1.94036 55.3219 4.86611 54.2785 5.76961 54.0204L16.7514 51.5035C18.268 51.0518 19.6555 50.2343 20.7742 49.1157L39.5112 29.9269L44.631 25.248ZM17.7087 43.3719C18.1768 43.3719 18.4234 43.9267 18.1097 44.2742L16.7299 45.8028C16.2997 46.1362 15.8156 46.3836 15.2993 46.545L6.42367 49.4831C5.69071 49.7257 5.03381 48.9549 5.38957 48.2697L9.36202 40.6184C9.5126 40.0914 9.77075 39.6073 10.1042 39.1879L11.3651 38.6824C11.9304 38.4557 12.5458 38.872 12.5458 39.4811V41.651C12.5458 42.5975 13.3202 43.3719 14.2668 43.3719H17.7087ZM39.5112 2.413L37.9623 3.97262L35.5314 6.40348L34.5806 7.99383C34.4814 8.15966 34.505 8.37125 34.6382 8.51121L41.3729 15.5885L47.9745 21.3278C48.1451 21.476 48.4012 21.4671 48.561 21.3073L53.4832 16.3851C56.1723 13.6961 56.1723 9.33988 53.4832 6.65087L49.2561 2.413C46.5671 -0.276011 42.2109 -0.276011 39.5219 2.413H39.5112ZM32.3378 23.3328L18.9241 35.9718C18.2573 36.6387 17.1601 36.6387 16.4933 35.9718C14.698 34.5191 17.4428 32.6045 18.1097 31.9377L31.9819 18.0523C32.6488 17.3854 33.7459 17.3854 34.4128 18.0523C36.2092 18.9022 33.0047 22.666 32.3378 23.3328Z" fill="black"/>
</svg>
